<?xml version="1.0" standalone="no"?>
<!DOCTYPE svg PUBLIC "-//W3C//DTD SVG 20010904//EN"
 "http://www.w3.org/TR/2001/REC-SVG-20010904/DTD/svg10.dtd">
<svg version="1.0" xmlns="http://www.w3.org/2000/svg"
 width="425.000000pt" height="431.000000pt" viewBox="0 0 425.000000 431.000000"
 preserveAspectRatio="xMidYMid meet">
<metadata>
Created by potrace 1.15, written by Peter Selinger 2001-2017
</metadata>
<g transform="translate(0.000000,431.000000) scale(0.100000,-0.100000)"
fill="#000000" stroke="none">
<path d="M1925 4294 c-281 -41 -500 -117 -713 -247 -173 -106 -285 -201 -431
-366 -234 -266 -369 -600 -403 -998 -26 -303 29 -567 191 -917 23 -49 38 -92
34 -96 -4 -4 -114 -78 -243 -165 -334 -225 -351 -238 -345 -252 16 -42 179
-282 250 -368 223 -268 532 -511 836 -654 217 -102 509 -184 751 -210 146 -16
457 -14 600 5 489 63 981 305 1352 664 141 137 246 265 340 415 39 61 76 117
83 126 20 24 16 35 -24 59 -21 13 -164 97 -318 187 -154 91 -284 169 -288 173
-5 4 14 56 41 116 121 267 163 408 189 634 27 233 3 460 -73 690 -41 123 -142
334 -212 441 -234 358 -640 632 -1087 735 -105 24 -144 27 -310 30 -104 1
-203 0 -220 -2z m320 -294 c207 -23 341 -62 521 -150 149 -72 251 -148 376
-278 194 -202 328 -454 390 -732 30 -139 33 -408 5 -540 -65 -304 -201 -556
-421 -776 -135 -135 -198 -181 -360 -263 -126 -65 -200 -91 -348 -123 -89 -19
-132 -22 -318 -22 -207 1 -219 2 -330 31 -277 73 -496 199 -696 400 -207 208
-328 445 -390 763 -25 130 -25 409 -1 533 58 293 241 604 479 813 291 257 705
387 1093 344z m1446 -2655 c84 -57 168 -117 188 -133 l35 -28 -49 -65 c-90
-120 -342 -352 -511 -471 -275 -193 -582 -316 -910 -364 -226 -33 -583 -19
-799 31 -320 76 -661 240 -905 436 -122 98 -410 407 -410 440 0 10 321 232
336 233 7 1 65 -48 130 -109 249 -234 393 -333 624 -428 195 -80 372 -116 611
-124 207 -7 318 4 504 52 349 89 573 221 845 496 74 76 140 138 147 138 6 1
80 -46 164 -104z"/>
<path d="M1972 3830 c-285 -30 -505 -130 -735 -334 -171 -153 -264 -293 -342
-517 -91 -263 -98 -551 -19 -788 37 -111 125 -289 186 -378 171 -249 461 -434
791 -504 132 -29 402 -32 514 -6 386 88 720 350 883 692 72 152 130 351 130
450 l0 35 -167 -2 -166 -3 -28 -105 c-84 -322 -251 -529 -533 -660 -137 -64
-190 -75 -371 -74 -140 0 -172 4 -260 27 -317 84 -539 302 -651 637 -27 80
-28 95 -28 260 0 165 1 180 28 260 113 342 378 584 721 657 99 21 323 12 425
-17 108 -30 243 -100 332 -169 171 -136 317 -381 343 -578 l7 -53 174 0 c202
0 185 -14 154 131 -36 172 -74 276 -150 409 -156 272 -422 487 -710 574 -168
50 -372 72 -528 56z"/>
<path d="M1966 3304 c-350 -63 -616 -382 -618 -739 0 -127 27 -237 89 -364
104 -212 332 -365 582 -390 106 -11 242 2 336 31 86 27 226 119 291 191 107
118 204 312 204 407 l0 39 -53 6 c-29 4 -96 5 -148 2 l-94 -5 -16 -49 c-36
-109 -89 -181 -175 -238 -243 -162 -571 -50 -664 226 -33 96 -26 219 17 312
86 183 275 284 472 251 151 -26 254 -106 324 -255 l42 -89 148 0 147 0 0 28
c-1 102 -93 293 -200 415 -89 101 -268 194 -425 222 -105 18 -154 18 -259 -1z"/>
<path d="M3548 1251 c-13 -11 -51 -50 -83 -86 l-59 -67 75 -69 c41 -37 77 -68
80 -69 4 0 19 16 34 36 l27 36 -27 28 c-18 19 -23 30 -15 35 23 14 70 89 70
112 0 28 -33 63 -59 63 -10 0 -29 -9 -43 -19z"/>
<path d="M556 1225 c-19 -20 -26 -39 -26 -67 0 -50 17 -82 73 -136 33 -33 55
-45 86 -49 47 -6 51 2 24 48 -12 21 -25 29 -44 29 -28 0 -69 39 -69 66 0 22
38 54 63 54 29 0 67 -39 67 -67 0 -12 13 -31 29 -42 37 -27 41 -26 41 4 0 42
-25 87 -73 134 -39 37 -53 45 -96 49 -45 4 -52 2 -75 -23z"/>
<path d="M3265 979 c-50 -40 -89 -76 -87 -82 2 -5 30 -43 63 -84 66 -80 60
-78 117 -29 l22 20 -26 27 c-14 15 -23 32 -20 38 8 12 57 13 96 2 20 -6 34 0
69 28 42 35 43 36 20 42 -13 4 -41 7 -61 8 -42 1 -42 1 -27 34 17 37 -3 67
-44 67 -25 0 -53 -16 -122 -71z"/>
<path d="M815 968 c-55 -22 -104 -43 -108 -48 -15 -13 58 -62 85 -56 29 7 104
-55 95 -78 -4 -9 8 -27 31 -47 44 -39 44 -39 67 105 18 109 22 95 -45 145 -25
19 -26 19 -125 -21z"/>
<path d="M1083 858 c-18 -22 -96 -169 -92 -172 2 -2 22 -13 45 -24 l41 -21 16
34 16 34 48 -24 c73 -36 87 -38 116 -14 53 41 30 79 -89 149 -46 27 -86 50
-88 50 -2 0 -8 -6 -13 -12z"/>
<path d="M3054 834 c-96 -35 -159 -123 -134 -185 31 -74 125 -77 227 -7 138
94 63 250 -93 192z"/>
<path d="M1326 694 c-32 -31 -13 -64 59 -105 62 -35 72 -46 57 -61 -15 -15
-70 9 -78 34 -5 18 -18 26 -71 42 -18 6 -23 3 -23 -11 0 -49 91 -109 181 -120
39 -5 53 -2 69 12 42 38 16 82 -80 136 -22 13 -39 28 -37 33 6 17 40 7 62 -18
19 -21 65 -46 85 -46 19 0 10 37 -14 59 -30 28 -116 61 -160 61 -19 0 -42 -7
-50 -16z"/>
<path d="M2726 680 c-88 -34 -123 -86 -102 -150 8 -25 22 -40 49 -54 37 -18
42 -18 104 -2 74 18 130 55 139 92 8 32 5 35 -38 28 -25 -4 -39 -14 -47 -30
-25 -55 -103 -54 -117 2 -12 48 37 91 82 73 18 -6 33 -3 60 13 34 20 35 22 18
35 -25 18 -90 15 -148 -7z"/>
<path d="M1590 570 c-18 -94 -9 -118 55 -150 64 -32 171 -35 203 -6 16 14 52
125 52 160 0 2 -15 7 -32 11 -18 4 -40 9 -50 11 -12 4 -18 -5 -23 -38 -16
-105 -32 -125 -84 -107 -37 13 -41 29 -24 99 7 30 12 58 13 62 0 3 -15 9 -32
13 -18 4 -40 8 -49 11 -12 3 -18 -10 -29 -66z"/>
<path d="M2310 583 c-63 -8 -116 -16 -118 -17 -5 -6 21 -206 27 -206 25 0 243
30 250 35 16 9 0 46 -18 41 -9 -3 -46 -8 -83 -12 -63 -6 -68 -5 -68 13 0 16 9
22 46 27 26 3 60 6 76 6 25 0 29 4 26 23 -3 23 0 23 -103 16 -41 -3 -50 -1
-53 14 -3 14 4 17 36 17 22 0 59 3 84 6 41 6 44 9 40 30 -2 13 -9 23 -16 23
-6 -1 -63 -8 -126 -16z"/>
<path d="M1930 533 c0 -21 -3 -68 -7 -105 l-6 -68 127 0 126 0 0 25 c0 24 -2
25 -76 25 l-76 0 4 80 3 80 -47 0 -48 0 0 -37z"/>
</g>
</svg>
